<?xml version="1.0" encoding="UTF-8" standalone="no"?>
<!-- Created with Inkscape (http://www.inkscape.org/) -->

<svg
   xmlns:dc="http://purl.org/dc/elements/1.1/"
   xmlns:cc="http://creativecommons.org/ns#"
   xmlns:rdf="http://www.w3.org/1999/02/22-rdf-syntax-ns#"
   xmlns:svg="http://www.w3.org/2000/svg"
   xmlns="http://www.w3.org/2000/svg"
   xmlns:sodipodi="http://sodipodi.sourceforge.net/DTD/sodipodi-0.dtd"
   xmlns:inkscape="http://www.inkscape.org/namespaces/inkscape"
   width="210mm"
   height="297mm"
   id="svg2"
   version="1.1"
   inkscape:version="0.48.4 r9939"
   sodipodi:docname="coquerel.svg">
  <defs
     id="defs4" />
  <sodipodi:namedview
     id="base"
     pagecolor="#ffffff"
     bordercolor="#666666"
     borderopacity="1.0"
     inkscape:pageopacity="0.0"
     inkscape:pageshadow="2"
     inkscape:zoom="1.4"
     inkscape:cx="467.04611"
     inkscape:cy="707.00313"
     inkscape:document-units="px"
     inkscape:current-layer="layer1"
     showgrid="false"
     inkscape:window-width="1920"
     inkscape:window-height="1145"
     inkscape:window-x="-4"
     inkscape:window-y="-3"
     inkscape:window-maximized="1" />
  <metadata
     id="metadata7">
    <rdf:RDF>
      <cc:Work
         rdf:about="">
        <dc:format>image/svg+xml</dc:format>
        <dc:type
           rdf:resource="http://purl.org/dc/dcmitype/StillImage" />
        <dc:title></dc:title>
      </cc:Work>
    </rdf:RDF>
  </metadata>
  <g
     inkscape:label="Ebene 1"
     inkscape:groupmode="layer"
     id="layer1">
    <path
       style="fill:#dc963c;fill-opacity:1;stroke:#ffffff;stroke-width:3.0968999;stroke-linecap:butt;stroke-linejoin:miter;stroke-miterlimit:4;stroke-opacity:1;stroke-dasharray:none"
       d="m 154.79091,296.6479 c -9.58344,8.61398 -17.85714,34.28571 -17.85714,34.28571 l 41.42857,45.71429 -30.35714,33.57142 15,107.14286 15.35713,-31.07143 22.50001,33.21429 9.99999,-34.28572 23.92858,29.28572 3.92858,-23.21429 29.28571,22.5 -45.35714,-114.64286 c -5.89135,-41.11311 15.37657,-59.01342 14.99999,-70.71428 -3.23114,-27.71176 -12.79596,-53.28551 -64.64285,-38.92857 0,0 -13.36403,2.78325 -18.21429,7.14286 z"
       id="path2987"
       inkscape:connector-curvature="0"
       sodipodi:nodetypes="scccccccccccccs"
       inkscape:export-filename="/opt/coquery/logo/logo.png"
       inkscape:export-xdpi="127.91716"
       inkscape:export-ydpi="127.91716" />
    <path
       style="fill:#aa0000;stroke:#ffffff;stroke-width:2.5;stroke-linecap:butt;stroke-linejoin:miter;stroke-miterlimit:4;stroke-opacity:1;stroke-dasharray:none"
       d="m 180.35922,256.54993 c 34.24179,29.66611 22.69551,-13.26767 33.848,-9.63084 12.0029,3.91415 23.31552,29.84793 23.31552,29.84793 0,0 12.4094,-24.97624 22.41877,-21.94701 8.30178,2.51244 5.3805,25.45853 5.3805,25.45853 0,0 26.30438,-7.83654 30.93862,1.38806 4.30581,8.57084 -16.12533,23.83205 -16.12533,23.83205 0,0 26.39994,1.29069 27.89249,11.19764 1.58703,10.53403 -24.83361,20.11598 -24.83361,20.11598 0,0 24.04828,15.08129 19.43914,24.40418 -11.38704,23.03246 -77.06504,-1.55207 -77.06504,-1.55207 20.22205,-66.35471 -38.37973,-83.105 -70.99807,-62.59679 0,0 0.87418,-62.10316 25.78901,-40.51766 z"
       id="path2985"
       inkscape:connector-curvature="0"
       sodipodi:nodetypes="sacacacacaccs"
       inkscape:export-filename="/opt/coquery/logo/logo.png"
       inkscape:export-xdpi="127.91716"
       inkscape:export-ydpi="127.91716" />
    <path
       style="fill:#aa0000;fill-opacity:1;stroke:#ffffff;stroke-width:2.5;stroke-linecap:butt;stroke-linejoin:miter;stroke-miterlimit:4;stroke-opacity:1;stroke-dasharray:none"
       d="m 145.92362,339.24506 c 0,0 5.33456,-25.74927 18.21428,-35.83684 9.20826,-7.21204 14.56157,-7.51379 24.93872,-7.11747 6.2429,0.23843 17.74012,6.82711 20.35715,12.5 6.89143,14.93845 5.73293,25.12925 -1.42857,37.50001 -7.34914,12.69488 -17.1107,18.00705 -30.55585,23.83139 0,0 10.87136,40.21868 5.13923,57.66896 -9.12681,27.78466 -20.18879,17.03837 -27.14466,29.79695 -6.17513,11.32654 -25.68638,22.36215 -36.01015,17.45269 -9.88275,-4.69973 -14.78416,-11.32379 -16.42858,-22.14285 -1.30601,-8.59261 2.74798,-15.85681 8.75001,-22.14286 7.70162,-8.06607 30.65083,-13.18057 30.65083,-13.18057 l 5.95631,-6.64086 19.81182,-34.79079 z"
       id="path3757"
       inkscape:connector-curvature="0"
       sodipodi:nodetypes="csssscssssscccc"
       inkscape:export-filename="/opt/coquery/logo/logo.png"
       inkscape:export-xdpi="127.91716"
       inkscape:export-ydpi="127.91716" />
    <path
       sodipodi:type="arc"
       style="fill:#ffffff;fill-opacity:1;stroke:#fff7f7;stroke-width:0;stroke-miterlimit:4;stroke-opacity:1;stroke-dasharray:none"
       id="path3765"
       sodipodi:cx="224.46428"
       sodipodi:cy="375.93362"
       sodipodi:rx="33.035713"
       sodipodi:ry="52.142857"
       d="m 257.49999,375.93362 a 33.035713,52.142857 0 1 1 -66.07142,0 33.035713,52.142857 0 1 1 66.07142,0 z"
       transform="matrix(0.51105667,0.19710189,-0.22376284,0.43580569,145.44693,124.51976)"
       inkscape:export-filename="/opt/coquery/logo/logo.png"
       inkscape:export-xdpi="127.91716"
       inkscape:export-ydpi="127.91716" />
    <path
       sodipodi:type="arc"
       style="fill:#000000;fill-opacity:1;stroke:#000000;stroke-width:0;stroke-miterlimit:4;stroke-opacity:1;stroke-dasharray:none"
       id="path3767"
       sodipodi:cx="210.53572"
       sodipodi:cy="379.14789"
       sodipodi:rx="13.392858"
       sodipodi:ry="26.428572"
       d="m 223.92858,379.14789 a 13.392858,26.428572 0 1 1 -26.78572,0 13.392858,26.428572 0 1 1 26.78572,0 z"
       transform="matrix(0.61745599,0.20186367,-0.23981091,0.51128674,134.37293,97.831009)"
       inkscape:export-filename="/opt/coquery/logo/logo.png"
       inkscape:export-xdpi="127.91716"
       inkscape:export-ydpi="127.91716" />
    <path
       transform="matrix(-0.77957663,-0.47822353,-0.50491181,0.68283961,496.20969,187.58655)"
       d="m 195.35714,340.57648 a 1.7857143,5.3571429 0 1 1 -3.57143,0 1.7857143,5.3571429 0 1 1 3.57143,0 z"
       sodipodi:ry="5.3571429"
       sodipodi:rx="1.7857143"
       sodipodi:cy="340.57648"
       sodipodi:cx="193.57143"
       id="path3773"
       style="fill:#ffffff;fill-opacity:1;stroke:#000000;stroke-width:1.29105375;stroke-miterlimit:4;stroke-opacity:1;stroke-dasharray:none"
       sodipodi:type="arc"
       inkscape:export-filename="/opt/coquery/logo/logo.png"
       inkscape:export-xdpi="127.91716"
       inkscape:export-ydpi="127.91716" />
    <path
       style="fill:#ffcb00;fill-opacity:1;stroke:#ffffff;stroke-width:2.5;stroke-linecap:butt;stroke-linejoin:miter;stroke-miterlimit:4;stroke-opacity:1;stroke-dasharray:none"
       d="M 178.57622,369.84569 C 139.73609,304.77316 61.69438,292.2224 61.69438,292.2224 c 0,0 83.59321,54.21211 91.22011,87.26615 -13.45323,14.49747 -50.09357,15.72299 -50.09357,15.72299 0,0 25.9936,23.25881 53.8742,10.3256 26.05892,-12.08818 21.8811,-35.69145 21.8811,-35.69145 z"
       id="path3775"
       inkscape:connector-curvature="0"
       sodipodi:nodetypes="ccccsc"
       inkscape:export-filename="/opt/coquery/logo/logo.png"
       inkscape:export-xdpi="127.91716"
       inkscape:export-ydpi="127.91716" />
    <path
       style="fill:#dc963c;fill-opacity:1;stroke:none"
       d="m 426.18451,363.76854 c -2.16637,2.26444 -3.21402,5.32676 -4.26658,8.21841 3.29949,3.65262 6.59898,7.30525 9.89847,10.95787 -2.41773,2.6824 -4.83546,5.36479 -7.25319,8.04719 1.19464,8.56084 2.38929,17.12167 3.58393,25.68251 1.22309,-2.48264 2.44617,-4.96529 3.66926,-7.44793 1.79197,2.65386 3.58393,5.30773 5.3759,7.96159 0.79643,-2.73947 1.59286,-5.47894 2.38929,-8.21841 1.90574,2.33996 3.81148,4.67993 5.71722,7.01989 0.31288,-1.85485 0.62577,-3.7097 0.93865,-5.56455 2.3324,1.79778 4.6648,3.59555 6.9972,5.39333 -3.61237,-9.1601 -7.22475,-18.32019 -10.83712,-27.48029 -0.82629,-4.86497 0.33593,-9.85841 2.69204,-14.1406 1.20928,-1.7756 0.88597,-3.90491 0.3864,-5.85149 -0.59086,-3.16445 -2.66983,-6.34927 -6.02364,-6.98831 -3.9564,-0.82657 -7.99575,0.33338 -11.74496,1.55062 -0.53757,0.22426 -1.08038,0.47316 -1.52287,0.86017 z"
       id="path2987-7"
       inkscape:connector-curvature="0"
       inkscape:export-filename="/opt/coquery/logo/logo_small.png"
       inkscape:export-xdpi="88.230003"
       inkscape:export-ydpi="88.230003" />
    <path
       style="fill:#aa0000;stroke:none"
       d="m 432.29352,354.15692 c 1.36707,1.09105 2.81325,2.51112 4.67092,2.50579 2.09694,-0.53193 1.52497,-3.28042 2.63936,-4.67377 1.74354,-0.54315 3.04839,1.65553 4.02034,2.84555 0.96771,1.04093 1.74296,3.57178 2.45946,3.91271 1.09923,-1.88059 2.22019,-4.06841 4.30763,-4.98738 1.73878,-0.51931 2.26612,1.70714 2.28661,2.98702 0.36826,1.17639 -0.89569,3.86813 1.15215,2.78492 1.85373,-0.32749 3.98447,-0.87714 5.71722,0.12673 1.41563,1.25554 -0.15961,3.12749 -1.10212,4.14572 -0.46251,0.72975 -2.23886,1.75647 -2.04047,2.10382 2.06579,0.24226 4.39642,0.40472 6.00385,1.86904 1.25575,1.62372 -0.86809,3.24134 -2.14973,3.98448 -0.82368,0.73828 -3.05753,1.19626 -3.15025,1.79423 1.7528,1.28739 3.84775,2.6124 4.51644,4.7971 0.0736,1.93426 -2.16616,2.90494 -3.79822,3.11675 -4.51262,0.51831 -8.9935,-0.78384 -13.26534,-2.08838 -1.27945,-0.16408 -1.74309,-0.75416 -1.06756,-1.96383 1.05264,-4.09358 0.91558,-9.01138 -2.15572,-12.23968 -3.8779,-4.0477 -10.61283,-4.19705 -15.20631,-1.3086 0.17388,-3.23947 0.3404,-6.67138 1.96164,-9.5606 0.68469,-1.38985 2.55551,-1.60277 3.65868,-0.57899 l 0.26657,0.19939 0.27485,0.22798 0,0 z"
       id="path2985-7"
       inkscape:connector-curvature="0"
       inkscape:export-filename="/opt/coquery/logo/logo_small.png"
       inkscape:export-xdpi="88.230003"
       inkscape:export-ydpi="88.230003" />
    <path
       style="fill:#aa0000;fill-opacity:1;stroke:none"
       d="m 424.06586,373.97923 c 0.47021,-6.12711 6.96066,-13.37846 13.26636,-9.19072 5.11203,3.72788 3.12094,11.9213 -2.08137,14.5653 -6.71031,2.94516 -0.25605,9.55919 -2.16359,14.61245 -0.78536,5.47876 -6.52843,7.40787 -9.67867,11.35779 -5.75255,5.28156 -13.1426,-4.41637 -7.87325,-9.28689 4.99081,-2.31535 10.47358,-4.57396 12.41007,-10.24705 2.48252,-3.44942 -0.95456,-6.48097 -2.45536,-9.4415 -0.47473,-0.78979 -0.94946,-1.57959 -1.42419,-2.36938 z"
       id="path3757-6"
       inkscape:connector-curvature="0"
       inkscape:export-filename="/opt/coquery/logo/logo_small.png"
       inkscape:export-xdpi="88.230003"
       inkscape:export-ydpi="88.230003" />
    <path
       sodipodi:type="arc"
       style="fill:#ffffff;fill-opacity:1;stroke:none"
       id="path3765-9"
       sodipodi:cx="224.46428"
       sodipodi:cy="375.93362"
       sodipodi:rx="33.035713"
       sodipodi:ry="52.142857"
       d="m 257.49999,375.93362 a 33.035713,52.142857 0 1 1 -66.07142,0 33.035713,52.142857 0 1 1 66.07142,0 z"
       transform="matrix(0.12210615,0.04724601,-0.05346338,0.10446415,423.95196,322.50882)"
       inkscape:export-filename="/opt/coquery/logo/logo_small.png"
       inkscape:export-xdpi="88.230003"
       inkscape:export-ydpi="88.230003" />
    <path
       sodipodi:type="arc"
       style="fill:#000000;fill-opacity:1;stroke:none"
       id="path3767-9"
       sodipodi:cx="210.53572"
       sodipodi:cy="379.14789"
       sodipodi:rx="13.392858"
       sodipodi:ry="26.428572"
       d="m 223.92858,379.14789 a 13.392858,26.428572 0 1 1 -26.78572,0 13.392858,26.428572 0 1 1 26.78572,0 z"
       transform="matrix(0.14752801,0.04838743,-0.05729773,0.12255722,421.30607,316.11143)"
       inkscape:export-filename="/opt/coquery/logo/logo_small.png"
       inkscape:export-xdpi="88.230003"
       inkscape:export-ydpi="88.230003" />
    <path
       style="fill:#ffcb00;fill-opacity:1;stroke:none"
       d="m 431.86751,381.31431 c -9.28003,-15.59812 -27.92644,-18.60658 -27.92644,-18.60658 0,0 19.97282,12.99483 21.79511,20.918 -3.21436,3.4751 -11.9688,3.76886 -11.9688,3.76886 0,0 6.21062,5.57522 12.8721,2.47508 6.22623,-2.89758 5.22803,-8.55536 5.22803,-8.55536 z"
       id="path3775-4"
       inkscape:connector-curvature="0"
       sodipodi:nodetypes="ccccsc"
       inkscape:export-filename="/opt/coquery/logo/logo_small.png"
       inkscape:export-xdpi="88.230003"
       inkscape:export-ydpi="88.230003" />
  </g>
</svg>
