<?xml version="1.0" encoding="UTF-8" standalone="no"?>
<svg
   xmlns:dc="http://purl.org/dc/elements/1.1/"
   xmlns:cc="http://creativecommons.org/ns#"
   xmlns:rdf="http://www.w3.org/1999/02/22-rdf-syntax-ns#"
   xmlns:svg="http://www.w3.org/2000/svg"
   xmlns="http://www.w3.org/2000/svg"
   xmlns:sodipodi="http://sodipodi.sourceforge.net/DTD/sodipodi-0.dtd"
   xmlns:inkscape="http://www.inkscape.org/namespaces/inkscape"
   height="24"
   width="40"
   version="1.1"
   id="svg2"
   inkscape:version="0.48.4 r9939"
   sodipodi:docname="switch-on.svg">
  <metadata
     id="metadata36">
    <rdf:RDF>
      <cc:Work
         rdf:about="">
        <dc:format>image/svg+xml</dc:format>
        <dc:type
           rdf:resource="http://purl.org/dc/dcmitype/StillImage" />
      </cc:Work>
    </rdf:RDF>
  </metadata>
  <defs
     id="defs34" />
  <sodipodi:namedview
     pagecolor="#ffffff"
     bordercolor="#666666"
     borderopacity="1"
     objecttolerance="10"
     gridtolerance="10"
     guidetolerance="10"
     inkscape:pageopacity="0"
     inkscape:pageshadow="2"
     inkscape:window-width="1020"
     inkscape:window-height="690"
     id="namedview32"
     showgrid="false"
     fit-margin-top="1"
     fit-margin-left="0"
     fit-margin-right="0"
     fit-margin-bottom="0"
     inkscape:zoom="6.9532165"
     inkscape:cx="36.679552"
     inkscape:cy="2.4095097"
     inkscape:window-x="462"
     inkscape:window-y="18"
     inkscape:window-maximized="0"
     inkscape:current-layer="svg2"
     showguides="true"
     inkscape:guide-bbox="true" />
  <g
     id="g6"
     transform="matrix(1.7950694,0,0,1.688902,-1.4899846,-1745.1788)">
    <path
       style="fill:#95a5a6"
       inkscape:connector-curvature="0"
       id="path8"
       d="m 17,1034.4 c 3.314,0 6,2.6 6,6 0,3.3 -2.686,6 -6,6 H 12 7 c -3.3137,0 -6,-2.7 -6,-6 0,-3.4 2.6863,-6 6,-6 h 5 5 z" />
    <path
       style="fill:#bdc3c7"
       inkscape:connector-curvature="0"
       id="path10"
       d="m 17,1033.4 c 3.314,0 6,2.6 6,6 0,3.3 -2.686,6 -6,6 H 12 7 c -3.3137,0 -6,-2.7 -6,-6 0,-3.4 2.6863,-6 6,-6 h 5 5 z" />
    <path
       style="fill:#2ecc71"
       inkscape:connector-curvature="0"
       id="path12"
       d="m 17,1035.4 c 2.209,0 4,1.8 4,4 0,2.2 -1.791,4 -4,4 H 12 7 c -2.2091,0 -4,-1.8 -4,-4 0,-2.2 1.7909,-4 4,-4 h 5 5 z" />
    <path
       style="fill:#27ae60"
       inkscape:connector-curvature="0"
       id="path14"
       d="m 17,1035.4 c 2.209,0 4,1.8 4,4 0,0.1 -0.042,0.3 -0.062,0.5 -0.248,-2 -1.899,-3.5 -3.938,-3.5 H 12 7 c -2.039,0 -3.6904,1.5 -3.9375,3.5 C 3.0419,1039.7 3,1039.5 3,1039.4 c 0,-2.2 1.7909,-4 4,-4 h 5 5 z" />
  </g>
  <text
     xml:space="preserve"
     style="font-size:11.48493481px;font-style:normal;font-variant:normal;font-weight:600;font-stretch:normal;text-align:start;line-height:125%;letter-spacing:0px;word-spacing:0px;writing-mode:lr-tb;text-anchor:start;fill:#ecf0f1;fill-opacity:1;stroke:none;font-family:Bauhaus;-inkscape-font-specification:Bauhaus Semi-Bold"
     x="19.653734"
     y="14.715375"
     id="text3032"
     sodipodi:linespacing="125%"
     transform="scale(1.044847,0.9570779)"><tspan
       sodipodi:role="line"
       id="tspan3034"
       x="19.653734"
       y="14.715375"
       style="font-size:11.48493481px;font-style:normal;font-variant:normal;font-weight:600;font-stretch:normal;text-align:start;line-height:125%;writing-mode:lr-tb;text-anchor:start;fill:#ecf0f1;fill-opacity:1;font-family:Bauhaus;-inkscape-font-specification:Bauhaus Semi-Bold">on</tspan></text>
  <path
     d="m 3.8021562,8.1807758 -0.04161,2.2838392 c -0.07236,3.616107 2.834906,6.661339 6.3319528,6.661339 h 2.713694 c 3.996367,0 7.236517,-3.425929 7.236517,-7.61291 0,-0.7613935 -0.133875,-1.3322682 -0.282224,-1.9033133 z"
     id="path20"
     inkscape:connector-curvature="0"
     style="fill:#7f8c8d" />
  <path
     d="m 10.092499,2.8880352 c -3.4970468,0 -6.3319528,2.6430438 -6.3319528,6.1672174 0,3.3481524 2.834906,6.1673884 6.3319528,6.1673884 h 3.618258 c 3.497048,0 6.331953,-2.819236 6.331953,-6.1673884 0,-3.5241736 -2.834905,-6.1672174 -6.331953,-6.1672174 h -3.618258 z"
     id="path22"
     inkscape:connector-curvature="0"
     style="fill:#ecf0f1" />
  <g
     id="g24"
     style="fill:#bdc3c7"
     transform="matrix(1.8091293,0,0,2.3643167,-19.758134,-2448.4777)">
    <path
       d="m 15.5,1037.4 c -0.276,0 -0.5,0.1 -0.5,0.4 v 3.2 c 0,0.2 0.224,0.4 0.5,0.4 0.276,0 0.5,-0.2 0.5,-0.4 v -3.2 c 0,-0.3 -0.224,-0.4 -0.5,-0.4 z"
       id="path26"
       inkscape:connector-curvature="0" />
    <path
       d="m 17.5,1037.4 c -0.276,0 -0.5,0.1 -0.5,0.4 v 3.2 c 0,0.2 0.224,0.4 0.5,0.4 0.276,0 0.5,-0.2 0.5,-0.4 v -3.2 c 0,-0.3 -0.224,-0.4 -0.5,-0.4 z"
       id="path28"
       inkscape:connector-curvature="0" />
    <path
       d="m 19.5,1037.4 c -0.276,0 -0.5,0.1 -0.5,0.4 v 3.2 c 0,0.2 0.224,0.4 0.5,0.4 0.276,0 0.5,-0.2 0.5,-0.4 v -3.2 c 0,-0.3 -0.224,-0.4 -0.5,-0.4 z"
       id="path30"
       inkscape:connector-curvature="0" />
  </g>
</svg>
